<mxfile host="app.diagrams.net" modified="2023-06-27T20:37:59.862Z" agent="Mozilla/5.0 (Windows NT 10.0; Win64; x64) AppleWebKit/537.36 (KHTML, like Gecko) Chrome/114.0.0.0 Safari/537.36" etag="8x6D_q3o-7X5U_Sh8A-K" version="21.5.1" type="github">
  <diagram id="C5RBs43oDa-KdzZeNtuy" name="Page-1">
    <mxGraphModel dx="2327" dy="860" grid="1" gridSize="10" guides="1" tooltips="1" connect="1" arrows="1" fold="1" page="1" pageScale="1" pageWidth="827" pageHeight="1169" math="0" shadow="0">
      <root>
        <mxCell id="WIyWlLk6GJQsqaUBKTNV-0" />
        <mxCell id="WIyWlLk6GJQsqaUBKTNV-1" parent="WIyWlLk6GJQsqaUBKTNV-0" />
        <mxCell id="xWuUHXgEeIm_ucfXzbu4-7" value="" style="edgeStyle=orthogonalEdgeStyle;rounded=0;orthogonalLoop=1;jettySize=auto;html=1;" edge="1" parent="WIyWlLk6GJQsqaUBKTNV-1" source="WIyWlLk6GJQsqaUBKTNV-3" target="xWuUHXgEeIm_ucfXzbu4-6">
          <mxGeometry relative="1" as="geometry" />
        </mxCell>
        <mxCell id="xWuUHXgEeIm_ucfXzbu4-24" value="" style="edgeStyle=orthogonalEdgeStyle;rounded=0;orthogonalLoop=1;jettySize=auto;html=1;" edge="1" parent="WIyWlLk6GJQsqaUBKTNV-1" source="WIyWlLk6GJQsqaUBKTNV-3" target="xWuUHXgEeIm_ucfXzbu4-23">
          <mxGeometry relative="1" as="geometry" />
        </mxCell>
        <mxCell id="xWuUHXgEeIm_ucfXzbu4-29" value="" style="edgeStyle=orthogonalEdgeStyle;rounded=0;orthogonalLoop=1;jettySize=auto;html=1;" edge="1" parent="WIyWlLk6GJQsqaUBKTNV-1" source="WIyWlLk6GJQsqaUBKTNV-3" target="xWuUHXgEeIm_ucfXzbu4-3">
          <mxGeometry relative="1" as="geometry" />
        </mxCell>
        <mxCell id="WIyWlLk6GJQsqaUBKTNV-3" value="Login" style="rounded=1;whiteSpace=wrap;html=1;fontSize=12;glass=0;strokeWidth=1;shadow=0;" parent="WIyWlLk6GJQsqaUBKTNV-1" vertex="1">
          <mxGeometry x="-570" y="130" width="120" height="40" as="geometry" />
        </mxCell>
        <mxCell id="xWuUHXgEeIm_ucfXzbu4-25" value="" style="edgeStyle=orthogonalEdgeStyle;rounded=0;orthogonalLoop=1;jettySize=auto;html=1;" edge="1" parent="WIyWlLk6GJQsqaUBKTNV-1" source="xWuUHXgEeIm_ucfXzbu4-3" target="WIyWlLk6GJQsqaUBKTNV-3">
          <mxGeometry relative="1" as="geometry" />
        </mxCell>
        <mxCell id="xWuUHXgEeIm_ucfXzbu4-28" value="" style="edgeStyle=orthogonalEdgeStyle;rounded=0;orthogonalLoop=1;jettySize=auto;html=1;" edge="1" parent="WIyWlLk6GJQsqaUBKTNV-1" source="xWuUHXgEeIm_ucfXzbu4-3" target="WIyWlLk6GJQsqaUBKTNV-3">
          <mxGeometry relative="1" as="geometry" />
        </mxCell>
        <mxCell id="xWuUHXgEeIm_ucfXzbu4-3" value="Register" style="rounded=1;whiteSpace=wrap;html=1;fontSize=12;glass=0;strokeWidth=1;shadow=0;" vertex="1" parent="WIyWlLk6GJQsqaUBKTNV-1">
          <mxGeometry x="-400" y="130" width="120" height="40" as="geometry" />
        </mxCell>
        <mxCell id="xWuUHXgEeIm_ucfXzbu4-10" value="" style="edgeStyle=orthogonalEdgeStyle;rounded=0;orthogonalLoop=1;jettySize=auto;html=1;" edge="1" parent="WIyWlLk6GJQsqaUBKTNV-1" source="xWuUHXgEeIm_ucfXzbu4-6" target="xWuUHXgEeIm_ucfXzbu4-9">
          <mxGeometry relative="1" as="geometry" />
        </mxCell>
        <mxCell id="xWuUHXgEeIm_ucfXzbu4-6" value="Forget password" style="rounded=1;whiteSpace=wrap;html=1;fontSize=12;glass=0;strokeWidth=1;shadow=0;" vertex="1" parent="WIyWlLk6GJQsqaUBKTNV-1">
          <mxGeometry x="-720" y="130" width="120" height="40" as="geometry" />
        </mxCell>
        <mxCell id="xWuUHXgEeIm_ucfXzbu4-12" value="" style="edgeStyle=orthogonalEdgeStyle;rounded=0;orthogonalLoop=1;jettySize=auto;html=1;" edge="1" parent="WIyWlLk6GJQsqaUBKTNV-1" source="xWuUHXgEeIm_ucfXzbu4-9" target="xWuUHXgEeIm_ucfXzbu4-11">
          <mxGeometry relative="1" as="geometry" />
        </mxCell>
        <mxCell id="xWuUHXgEeIm_ucfXzbu4-9" value="Verify otp" style="rounded=1;whiteSpace=wrap;html=1;fontSize=12;glass=0;strokeWidth=1;shadow=0;" vertex="1" parent="WIyWlLk6GJQsqaUBKTNV-1">
          <mxGeometry x="-760" y="200" width="120" height="40" as="geometry" />
        </mxCell>
        <mxCell id="xWuUHXgEeIm_ucfXzbu4-14" value="" style="edgeStyle=orthogonalEdgeStyle;rounded=0;orthogonalLoop=1;jettySize=auto;html=1;entryX=0.075;entryY=1.033;entryDx=0;entryDy=0;entryPerimeter=0;" edge="1" parent="WIyWlLk6GJQsqaUBKTNV-1" source="xWuUHXgEeIm_ucfXzbu4-11" target="WIyWlLk6GJQsqaUBKTNV-3">
          <mxGeometry relative="1" as="geometry">
            <mxPoint x="-550" y="180" as="targetPoint" />
          </mxGeometry>
        </mxCell>
        <mxCell id="xWuUHXgEeIm_ucfXzbu4-11" value="set new password" style="rounded=1;whiteSpace=wrap;html=1;fontSize=12;glass=0;strokeWidth=1;shadow=0;" vertex="1" parent="WIyWlLk6GJQsqaUBKTNV-1">
          <mxGeometry x="-800" y="270" width="120" height="40" as="geometry" />
        </mxCell>
        <mxCell id="xWuUHXgEeIm_ucfXzbu4-106" style="edgeStyle=orthogonalEdgeStyle;rounded=0;orthogonalLoop=1;jettySize=auto;html=1;" edge="1" parent="WIyWlLk6GJQsqaUBKTNV-1">
          <mxGeometry relative="1" as="geometry">
            <mxPoint x="-510" y="129" as="targetPoint" />
            <mxPoint x="-510" y="89" as="sourcePoint" />
          </mxGeometry>
        </mxCell>
        <mxCell id="xWuUHXgEeIm_ucfXzbu4-23" value="Start" style="rounded=1;whiteSpace=wrap;html=1;fontSize=12;glass=0;strokeWidth=1;shadow=0;" vertex="1" parent="WIyWlLk6GJQsqaUBKTNV-1">
          <mxGeometry x="-570" y="40" width="120" height="40" as="geometry" />
        </mxCell>
        <mxCell id="xWuUHXgEeIm_ucfXzbu4-31" value="" style="rounded=1;whiteSpace=wrap;html=1;absoluteArcSize=1;arcSize=14;strokeWidth=2;" vertex="1" parent="WIyWlLk6GJQsqaUBKTNV-1">
          <mxGeometry x="-800" y="441" width="120" height="240" as="geometry" />
        </mxCell>
        <mxCell id="xWuUHXgEeIm_ucfXzbu4-85" style="edgeStyle=orthogonalEdgeStyle;rounded=0;orthogonalLoop=1;jettySize=auto;html=1;" edge="1" parent="WIyWlLk6GJQsqaUBKTNV-1" source="xWuUHXgEeIm_ucfXzbu4-34">
          <mxGeometry relative="1" as="geometry">
            <mxPoint x="-440" y="560" as="targetPoint" />
          </mxGeometry>
        </mxCell>
        <mxCell id="xWuUHXgEeIm_ucfXzbu4-34" value="" style="rounded=1;whiteSpace=wrap;html=1;absoluteArcSize=1;arcSize=14;strokeWidth=2;" vertex="1" parent="WIyWlLk6GJQsqaUBKTNV-1">
          <mxGeometry x="-600" y="440" width="120" height="240" as="geometry" />
        </mxCell>
        <mxCell id="xWuUHXgEeIm_ucfXzbu4-86" style="edgeStyle=orthogonalEdgeStyle;rounded=0;orthogonalLoop=1;jettySize=auto;html=1;" edge="1" parent="WIyWlLk6GJQsqaUBKTNV-1" source="xWuUHXgEeIm_ucfXzbu4-35">
          <mxGeometry relative="1" as="geometry">
            <mxPoint x="-240" y="560" as="targetPoint" />
          </mxGeometry>
        </mxCell>
        <mxCell id="xWuUHXgEeIm_ucfXzbu4-35" value="Forms Fields" style="rounded=1;whiteSpace=wrap;html=1;absoluteArcSize=1;arcSize=14;strokeWidth=2;" vertex="1" parent="WIyWlLk6GJQsqaUBKTNV-1">
          <mxGeometry x="-439" y="440" width="119" height="240" as="geometry" />
        </mxCell>
        <mxCell id="xWuUHXgEeIm_ucfXzbu4-36" value="" style="rounded=1;whiteSpace=wrap;html=1;absoluteArcSize=1;arcSize=14;strokeWidth=2;" vertex="1" parent="WIyWlLk6GJQsqaUBKTNV-1">
          <mxGeometry x="-230" y="440" width="120" height="240" as="geometry" />
        </mxCell>
        <mxCell id="xWuUHXgEeIm_ucfXzbu4-50" value="Header" style="shape=ext;double=1;rounded=1;whiteSpace=wrap;html=1;" vertex="1" parent="WIyWlLk6GJQsqaUBKTNV-1">
          <mxGeometry x="-790" y="450" width="100" height="20" as="geometry" />
        </mxCell>
        <mxCell id="xWuUHXgEeIm_ucfXzbu4-51" value="Footer" style="shape=ext;double=1;rounded=1;whiteSpace=wrap;html=1;" vertex="1" parent="WIyWlLk6GJQsqaUBKTNV-1">
          <mxGeometry x="-790" y="650" width="100" height="20" as="geometry" />
        </mxCell>
        <mxCell id="xWuUHXgEeIm_ucfXzbu4-65" value="" style="childLayout=tableLayout;recursiveResize=0;shadow=0;fillColor=none;" vertex="1" parent="WIyWlLk6GJQsqaUBKTNV-1">
          <mxGeometry x="-790" y="507" width="100" height="77.78" as="geometry" />
        </mxCell>
        <mxCell id="xWuUHXgEeIm_ucfXzbu4-66" value="" style="shape=tableRow;horizontal=0;startSize=0;swimlaneHead=0;swimlaneBody=0;top=0;left=0;bottom=0;right=0;dropTarget=0;collapsible=0;recursiveResize=0;expand=0;fontStyle=0;fillColor=none;strokeColor=inherit;" vertex="1" parent="xWuUHXgEeIm_ucfXzbu4-65">
          <mxGeometry width="100" height="26" as="geometry" />
        </mxCell>
        <mxCell id="xWuUHXgEeIm_ucfXzbu4-67" value="Value 1" style="connectable=0;recursiveResize=0;strokeColor=inherit;fillColor=none;align=center;whiteSpace=wrap;html=1;" vertex="1" parent="xWuUHXgEeIm_ucfXzbu4-66">
          <mxGeometry width="33" height="26" as="geometry">
            <mxRectangle width="33" height="26" as="alternateBounds" />
          </mxGeometry>
        </mxCell>
        <mxCell id="xWuUHXgEeIm_ucfXzbu4-68" value="Value 2" style="connectable=0;recursiveResize=0;strokeColor=inherit;fillColor=none;align=center;whiteSpace=wrap;html=1;" vertex="1" parent="xWuUHXgEeIm_ucfXzbu4-66">
          <mxGeometry x="33" width="34" height="26" as="geometry">
            <mxRectangle width="34" height="26" as="alternateBounds" />
          </mxGeometry>
        </mxCell>
        <mxCell id="xWuUHXgEeIm_ucfXzbu4-69" value="Value 3" style="connectable=0;recursiveResize=0;strokeColor=inherit;fillColor=none;align=center;whiteSpace=wrap;html=1;" vertex="1" parent="xWuUHXgEeIm_ucfXzbu4-66">
          <mxGeometry x="67" width="33" height="26" as="geometry">
            <mxRectangle width="33" height="26" as="alternateBounds" />
          </mxGeometry>
        </mxCell>
        <mxCell id="xWuUHXgEeIm_ucfXzbu4-70" style="shape=tableRow;horizontal=0;startSize=0;swimlaneHead=0;swimlaneBody=0;top=0;left=0;bottom=0;right=0;dropTarget=0;collapsible=0;recursiveResize=0;expand=0;fontStyle=0;fillColor=none;strokeColor=inherit;" vertex="1" parent="xWuUHXgEeIm_ucfXzbu4-65">
          <mxGeometry y="26" width="100" height="26" as="geometry" />
        </mxCell>
        <mxCell id="xWuUHXgEeIm_ucfXzbu4-71" value="Value 4" style="connectable=0;recursiveResize=0;strokeColor=inherit;fillColor=none;align=center;whiteSpace=wrap;html=1;" vertex="1" parent="xWuUHXgEeIm_ucfXzbu4-70">
          <mxGeometry width="33" height="26" as="geometry">
            <mxRectangle width="33" height="26" as="alternateBounds" />
          </mxGeometry>
        </mxCell>
        <mxCell id="xWuUHXgEeIm_ucfXzbu4-72" value="Value 5" style="connectable=0;recursiveResize=0;strokeColor=inherit;fillColor=none;align=center;whiteSpace=wrap;html=1;" vertex="1" parent="xWuUHXgEeIm_ucfXzbu4-70">
          <mxGeometry x="33" width="34" height="26" as="geometry">
            <mxRectangle width="34" height="26" as="alternateBounds" />
          </mxGeometry>
        </mxCell>
        <mxCell id="xWuUHXgEeIm_ucfXzbu4-73" value="Value 6" style="connectable=0;recursiveResize=0;strokeColor=inherit;fillColor=none;align=center;whiteSpace=wrap;html=1;" vertex="1" parent="xWuUHXgEeIm_ucfXzbu4-70">
          <mxGeometry x="67" width="33" height="26" as="geometry">
            <mxRectangle width="33" height="26" as="alternateBounds" />
          </mxGeometry>
        </mxCell>
        <mxCell id="xWuUHXgEeIm_ucfXzbu4-74" style="shape=tableRow;horizontal=0;startSize=0;swimlaneHead=0;swimlaneBody=0;top=0;left=0;bottom=0;right=0;dropTarget=0;collapsible=0;recursiveResize=0;expand=0;fontStyle=0;fillColor=none;strokeColor=inherit;" vertex="1" parent="xWuUHXgEeIm_ucfXzbu4-65">
          <mxGeometry y="52" width="100" height="26" as="geometry" />
        </mxCell>
        <mxCell id="xWuUHXgEeIm_ucfXzbu4-75" value="Value 7" style="connectable=0;recursiveResize=0;strokeColor=inherit;fillColor=none;align=center;whiteSpace=wrap;html=1;" vertex="1" parent="xWuUHXgEeIm_ucfXzbu4-74">
          <mxGeometry width="33" height="26" as="geometry">
            <mxRectangle width="33" height="26" as="alternateBounds" />
          </mxGeometry>
        </mxCell>
        <mxCell id="xWuUHXgEeIm_ucfXzbu4-76" value="Value 8" style="connectable=0;recursiveResize=0;strokeColor=inherit;fillColor=none;align=center;whiteSpace=wrap;html=1;" vertex="1" parent="xWuUHXgEeIm_ucfXzbu4-74">
          <mxGeometry x="33" width="34" height="26" as="geometry">
            <mxRectangle width="34" height="26" as="alternateBounds" />
          </mxGeometry>
        </mxCell>
        <mxCell id="xWuUHXgEeIm_ucfXzbu4-77" value="Value 9" style="connectable=0;recursiveResize=0;strokeColor=inherit;fillColor=none;align=center;whiteSpace=wrap;html=1;" vertex="1" parent="xWuUHXgEeIm_ucfXzbu4-74">
          <mxGeometry x="67" width="33" height="26" as="geometry">
            <mxRectangle width="33" height="26" as="alternateBounds" />
          </mxGeometry>
        </mxCell>
        <mxCell id="xWuUHXgEeIm_ucfXzbu4-78" value="Detail + Images" style="shape=ext;double=1;rounded=0;whiteSpace=wrap;html=1;" vertex="1" parent="WIyWlLk6GJQsqaUBKTNV-1">
          <mxGeometry x="-585" y="512" width="90" height="60" as="geometry" />
        </mxCell>
        <mxCell id="xWuUHXgEeIm_ucfXzbu4-79" value="Add to cart" style="shape=ext;double=1;rounded=0;whiteSpace=wrap;html=1;" vertex="1" parent="WIyWlLk6GJQsqaUBKTNV-1">
          <mxGeometry x="-585" y="585" width="90" height="20" as="geometry" />
        </mxCell>
        <mxCell id="xWuUHXgEeIm_ucfXzbu4-80" value="Home page" style="text;html=1;align=center;verticalAlign=middle;resizable=0;points=[];autosize=1;strokeColor=none;fillColor=none;" vertex="1" parent="WIyWlLk6GJQsqaUBKTNV-1">
          <mxGeometry x="-787" y="388" width="90" height="30" as="geometry" />
        </mxCell>
        <mxCell id="xWuUHXgEeIm_ucfXzbu4-81" value="Item Detail Page" style="text;html=1;align=center;verticalAlign=middle;resizable=0;points=[];autosize=1;strokeColor=none;fillColor=none;" vertex="1" parent="WIyWlLk6GJQsqaUBKTNV-1">
          <mxGeometry x="-595" y="388" width="110" height="30" as="geometry" />
        </mxCell>
        <mxCell id="xWuUHXgEeIm_ucfXzbu4-87" style="edgeStyle=orthogonalEdgeStyle;rounded=0;orthogonalLoop=1;jettySize=auto;html=1;" edge="1" parent="WIyWlLk6GJQsqaUBKTNV-1" source="xWuUHXgEeIm_ucfXzbu4-82">
          <mxGeometry relative="1" as="geometry">
            <mxPoint x="-480" y="180" as="targetPoint" />
          </mxGeometry>
        </mxCell>
        <mxCell id="xWuUHXgEeIm_ucfXzbu4-88" value="" style="edgeStyle=orthogonalEdgeStyle;rounded=0;orthogonalLoop=1;jettySize=auto;html=1;" edge="1" parent="WIyWlLk6GJQsqaUBKTNV-1" source="xWuUHXgEeIm_ucfXzbu4-82" target="xWuUHXgEeIm_ucfXzbu4-35">
          <mxGeometry relative="1" as="geometry" />
        </mxCell>
        <mxCell id="xWuUHXgEeIm_ucfXzbu4-82" value="Order Page" style="text;html=1;align=center;verticalAlign=middle;resizable=0;points=[];autosize=1;strokeColor=default;" vertex="1" parent="WIyWlLk6GJQsqaUBKTNV-1">
          <mxGeometry x="-424" y="370" width="90" height="30" as="geometry" />
        </mxCell>
        <mxCell id="xWuUHXgEeIm_ucfXzbu4-84" style="edgeStyle=orthogonalEdgeStyle;rounded=0;orthogonalLoop=1;jettySize=auto;html=1;" edge="1" parent="WIyWlLk6GJQsqaUBKTNV-1" source="xWuUHXgEeIm_ucfXzbu4-70">
          <mxGeometry relative="1" as="geometry">
            <mxPoint x="-610" y="546" as="targetPoint" />
          </mxGeometry>
        </mxCell>
        <mxCell id="xWuUHXgEeIm_ucfXzbu4-91" value="Dashboard" style="text;html=1;align=center;verticalAlign=middle;resizable=0;points=[];autosize=1;strokeColor=none;fillColor=none;" vertex="1" parent="WIyWlLk6GJQsqaUBKTNV-1">
          <mxGeometry x="-210" y="378" width="80" height="30" as="geometry" />
        </mxCell>
        <mxCell id="xWuUHXgEeIm_ucfXzbu4-92" value="Order Status/History" style="text;html=1;align=center;verticalAlign=middle;resizable=0;points=[];autosize=1;strokeColor=#d6b656;fillColor=#fff2cc;" vertex="1" parent="WIyWlLk6GJQsqaUBKTNV-1">
          <mxGeometry x="-230" y="495" width="130" height="30" as="geometry" />
        </mxCell>
        <mxCell id="xWuUHXgEeIm_ucfXzbu4-93" value="Accounts edits" style="text;html=1;align=center;verticalAlign=middle;resizable=0;points=[];autosize=1;strokeColor=#6c8ebf;fillColor=#dae8fc;" vertex="1" parent="WIyWlLk6GJQsqaUBKTNV-1">
          <mxGeometry x="-229" y="534" width="100" height="30" as="geometry" />
        </mxCell>
        <mxCell id="xWuUHXgEeIm_ucfXzbu4-125" style="edgeStyle=orthogonalEdgeStyle;rounded=0;orthogonalLoop=1;jettySize=auto;html=1;" edge="1" parent="WIyWlLk6GJQsqaUBKTNV-1">
          <mxGeometry relative="1" as="geometry">
            <mxPoint x="-110" y="509" as="sourcePoint" />
            <mxPoint x="-85" y="750" as="targetPoint" />
          </mxGeometry>
        </mxCell>
        <mxCell id="xWuUHXgEeIm_ucfXzbu4-94" value="Purchased Item" style="text;html=1;align=center;verticalAlign=middle;resizable=0;points=[];autosize=1;strokeColor=#82b366;fillColor=#d5e8d4;" vertex="1" parent="WIyWlLk6GJQsqaUBKTNV-1">
          <mxGeometry x="-229" y="574" width="110" height="30" as="geometry" />
        </mxCell>
        <mxCell id="xWuUHXgEeIm_ucfXzbu4-97" value="" style="shape=curlyBracket;whiteSpace=wrap;html=1;rounded=1;flipH=1;labelPosition=right;verticalLabelPosition=middle;align=left;verticalAlign=middle;size=0.5;" vertex="1" parent="WIyWlLk6GJQsqaUBKTNV-1">
          <mxGeometry x="-60" y="400" width="210" height="310" as="geometry" />
        </mxCell>
        <mxCell id="xWuUHXgEeIm_ucfXzbu4-98" value="User&amp;nbsp;" style="text;html=1;align=center;verticalAlign=middle;resizable=0;points=[];autosize=1;strokeColor=none;fillColor=none;strokeWidth=7;fontSize=35;" vertex="1" parent="WIyWlLk6GJQsqaUBKTNV-1">
          <mxGeometry x="160" y="525" width="110" height="60" as="geometry" />
        </mxCell>
        <mxCell id="xWuUHXgEeIm_ucfXzbu4-101" value="" style="shape=curlyBracket;whiteSpace=wrap;html=1;rounded=1;flipH=1;labelPosition=right;verticalLabelPosition=middle;align=left;verticalAlign=middle;size=0.5;" vertex="1" parent="WIyWlLk6GJQsqaUBKTNV-1">
          <mxGeometry x="-70" y="793" width="210" height="487" as="geometry" />
        </mxCell>
        <mxCell id="xWuUHXgEeIm_ucfXzbu4-102" value="&lt;font style=&quot;font-size: 36px;&quot;&gt;Admin&lt;/font&gt;" style="text;html=1;align=center;verticalAlign=middle;resizable=0;points=[];autosize=1;strokeColor=none;fillColor=none;fontSize=36;" vertex="1" parent="WIyWlLk6GJQsqaUBKTNV-1">
          <mxGeometry x="125" y="903" width="130" height="60" as="geometry" />
        </mxCell>
        <mxCell id="xWuUHXgEeIm_ucfXzbu4-110" style="edgeStyle=orthogonalEdgeStyle;rounded=0;orthogonalLoop=1;jettySize=auto;html=1;" edge="1" parent="WIyWlLk6GJQsqaUBKTNV-1" source="xWuUHXgEeIm_ucfXzbu4-105">
          <mxGeometry relative="1" as="geometry">
            <mxPoint x="-742" y="890" as="targetPoint" />
          </mxGeometry>
        </mxCell>
        <mxCell id="xWuUHXgEeIm_ucfXzbu4-105" value="Login" style="rounded=1;whiteSpace=wrap;html=1;fontSize=12;glass=0;strokeWidth=1;shadow=0;" vertex="1" parent="WIyWlLk6GJQsqaUBKTNV-1">
          <mxGeometry x="-802" y="780" width="120" height="40" as="geometry" />
        </mxCell>
        <mxCell id="xWuUHXgEeIm_ucfXzbu4-131" style="edgeStyle=orthogonalEdgeStyle;rounded=0;orthogonalLoop=1;jettySize=auto;html=1;" edge="1" parent="WIyWlLk6GJQsqaUBKTNV-1" source="xWuUHXgEeIm_ucfXzbu4-113">
          <mxGeometry relative="1" as="geometry">
            <mxPoint x="-742" y="1320" as="targetPoint" />
            <Array as="points">
              <mxPoint x="-741" y="1320" />
            </Array>
          </mxGeometry>
        </mxCell>
        <mxCell id="xWuUHXgEeIm_ucfXzbu4-113" value="Dashboard&lt;br&gt;&lt;br&gt;&lt;br&gt;Pie CHart Data Shows&lt;br&gt;&lt;br&gt;&lt;br&gt;&lt;br&gt;Navigations&lt;br&gt;&lt;br&gt;&lt;br&gt;food&lt;br&gt;order status&amp;nbsp;" style="rounded=1;whiteSpace=wrap;html=1;absoluteArcSize=1;arcSize=14;strokeWidth=2;" vertex="1" parent="WIyWlLk6GJQsqaUBKTNV-1">
          <mxGeometry x="-807" y="894" width="130" height="240" as="geometry" />
        </mxCell>
        <mxCell id="xWuUHXgEeIm_ucfXzbu4-115" value="Food Crud Table" style="rounded=1;whiteSpace=wrap;html=1;absoluteArcSize=1;arcSize=14;strokeWidth=2;" vertex="1" parent="WIyWlLk6GJQsqaUBKTNV-1">
          <mxGeometry x="-569" y="921" width="130" height="240" as="geometry" />
        </mxCell>
        <mxCell id="xWuUHXgEeIm_ucfXzbu4-116" value="" style="edgeStyle=elbowEdgeStyle;elbow=horizontal;endArrow=classic;html=1;curved=0;rounded=0;endSize=8;startSize=8;" edge="1" parent="WIyWlLk6GJQsqaUBKTNV-1">
          <mxGeometry width="50" height="50" relative="1" as="geometry">
            <mxPoint x="-727" y="1072" as="sourcePoint" />
            <mxPoint x="-580" y="1042" as="targetPoint" />
          </mxGeometry>
        </mxCell>
        <mxCell id="xWuUHXgEeIm_ucfXzbu4-119" value="" style="shape=singleArrow;direction=south;whiteSpace=wrap;html=1;" vertex="1" parent="WIyWlLk6GJQsqaUBKTNV-1">
          <mxGeometry x="-753" y="1046" width="20" height="20" as="geometry" />
        </mxCell>
        <mxCell id="xWuUHXgEeIm_ucfXzbu4-122" value="" style="edgeStyle=elbowEdgeStyle;elbow=horizontal;endArrow=classic;html=1;curved=0;rounded=0;endSize=8;startSize=8;" edge="1" parent="WIyWlLk6GJQsqaUBKTNV-1">
          <mxGeometry width="50" height="50" relative="1" as="geometry">
            <mxPoint x="-360" y="870" as="sourcePoint" />
            <mxPoint x="-80" y="750" as="targetPoint" />
            <Array as="points">
              <mxPoint x="-630" y="760" />
            </Array>
          </mxGeometry>
        </mxCell>
        <mxCell id="xWuUHXgEeIm_ucfXzbu4-128" style="edgeStyle=orthogonalEdgeStyle;rounded=0;orthogonalLoop=1;jettySize=auto;html=1;" edge="1" parent="WIyWlLk6GJQsqaUBKTNV-1" source="xWuUHXgEeIm_ucfXzbu4-126">
          <mxGeometry relative="1" as="geometry">
            <mxPoint x="-295" y="1200" as="targetPoint" />
          </mxGeometry>
        </mxCell>
        <mxCell id="xWuUHXgEeIm_ucfXzbu4-126" value="Status Approved Page" style="rounded=1;whiteSpace=wrap;html=1;absoluteArcSize=1;arcSize=14;strokeWidth=2;" vertex="1" parent="WIyWlLk6GJQsqaUBKTNV-1">
          <mxGeometry x="-360" y="825" width="130" height="240" as="geometry" />
        </mxCell>
        <mxCell id="xWuUHXgEeIm_ucfXzbu4-127" value="" style="edgeStyle=elbowEdgeStyle;elbow=horizontal;endArrow=classic;html=1;curved=0;rounded=0;endSize=8;startSize=8;" edge="1" parent="WIyWlLk6GJQsqaUBKTNV-1">
          <mxGeometry width="50" height="50" relative="1" as="geometry">
            <mxPoint x="-716" y="1090" as="sourcePoint" />
            <mxPoint x="-300" y="1200" as="targetPoint" />
            <Array as="points">
              <mxPoint x="-660" y="1230" />
            </Array>
          </mxGeometry>
        </mxCell>
        <mxCell id="xWuUHXgEeIm_ucfXzbu4-130" style="edgeStyle=orthogonalEdgeStyle;rounded=0;orthogonalLoop=1;jettySize=auto;html=1;" edge="1" parent="WIyWlLk6GJQsqaUBKTNV-1" source="xWuUHXgEeIm_ucfXzbu4-129">
          <mxGeometry relative="1" as="geometry">
            <mxPoint x="-125" y="1280" as="targetPoint" />
          </mxGeometry>
        </mxCell>
        <mxCell id="xWuUHXgEeIm_ucfXzbu4-129" value="Get All Oders" style="rounded=1;whiteSpace=wrap;html=1;absoluteArcSize=1;arcSize=14;strokeWidth=2;" vertex="1" parent="WIyWlLk6GJQsqaUBKTNV-1">
          <mxGeometry x="-190" y="916.5" width="130" height="240" as="geometry" />
        </mxCell>
        <mxCell id="xWuUHXgEeIm_ucfXzbu4-133" style="edgeStyle=orthogonalEdgeStyle;rounded=0;orthogonalLoop=1;jettySize=auto;html=1;" edge="1" parent="WIyWlLk6GJQsqaUBKTNV-1" source="xWuUHXgEeIm_ucfXzbu4-132">
          <mxGeometry relative="1" as="geometry">
            <mxPoint x="-120" y="1280" as="targetPoint" />
          </mxGeometry>
        </mxCell>
        <mxCell id="xWuUHXgEeIm_ucfXzbu4-132" value="" style="line;strokeWidth=2;html=1;" vertex="1" parent="WIyWlLk6GJQsqaUBKTNV-1">
          <mxGeometry x="-730" y="1310" width="160" height="10" as="geometry" />
        </mxCell>
        <mxCell id="xWuUHXgEeIm_ucfXzbu4-134" value="Orders&lt;br&gt;" style="text;html=1;align=center;verticalAlign=middle;resizable=0;points=[];autosize=1;strokeColor=none;fillColor=none;" vertex="1" parent="WIyWlLk6GJQsqaUBKTNV-1">
          <mxGeometry x="-773" y="1100" width="60" height="30" as="geometry" />
        </mxCell>
      </root>
    </mxGraphModel>
  </diagram>
</mxfile>
